<svg width="22" height="21" viewBox="0 0 22 21" fill="black" xmlns="http://www.w3.org/2000/svg">
<path d="M17.4114 13.8368L15.2483 12.4223C14.9654 12.2377 14.6348 12.1403 14.292 12.1403C13.7468 12.1403 13.235 12.3906 12.9233 12.8093L12.4212 13.4828C11.5796 12.9545 10.6406 12.2169 9.7454 11.3792C8.85037 10.5415 8.06245 9.6626 7.49821 8.87494L8.21749 8.40497C8.58415 8.16602 8.82901 7.80804 8.90678 7.39728C8.98438 6.98682 8.88656 6.57208 8.63093 6.22876L7.11998 4.20422C6.80403 3.78125 6.29424 3.52856 5.75608 3.52856C5.56957 3.52856 5.38665 3.55939 5.21254 3.61951C5.01478 3.68787 4.83056 3.77179 4.64992 3.87799L4.35125 4.07483C4.27659 4.12915 4.20714 4.18866 4.14062 4.25092C3.77625 4.5918 3.51769 5.02332 3.37178 5.53357C2.74917 7.71802 4.29159 11.0212 7.20981 13.7526C9.66046 16.0463 12.6046 17.4711 14.8931 17.4714H14.8932C15.2851 17.4714 15.6546 17.4287 15.9914 17.3445C16.5365 17.2081 16.9976 16.9661 17.3621 16.6249C17.4283 16.5629 17.4916 16.4979 17.5594 16.4158L17.7699 16.1348C17.8727 15.981 17.9622 15.8085 18.0363 15.6221C18.2907 14.9781 18.0338 14.2439 17.4114 13.8368Z" fill="black"/>
</svg>
